<svg xmlns="http://www.w3.org/2000/svg" version="1.1" xmlns:xlink="http://www.w3.org/1999/xlink" xmlns:svgjs="http://svgjs.com/svgjs" width="1440" height="600" preserveAspectRatio="none" viewBox="0 0 1440 600"><g mask="url(&quot;#SvgjsMask1008&quot;)" fill="none"><rect width="1440" height="600" x="0" y="0" fill="#0e2a47"></rect><path d="M720 803.37C853.48 811.19 992.75 760.87 1077.14 657.14 1156.08 560.1 1143.33 424.3 1129.46 300 1117.49 192.83 1073.67 98.11 1005.4 14.6 926.96-81.31 843.49-190.86 720-200.82 590.8-211.26 467.72-134.86 384.49-35.51 307.51 56.36 297.21 180.18 300.47 300 303.64 415.57 328.32 528.85 402.34 617.66 483.97 715.62 592.7 795.92 720 803.37" fill="#1c538e"></path><path d="M720 625.71C806.37 630.77 896.48 598.21 951.09 531.09 1002.17 468.3 993.92 380.43 984.95 300 977.2 230.66 948.84 169.36 904.67 115.33 853.91 53.27 799.9-17.61 720-24.06 636.4-30.81 556.76 18.62 502.9 82.9 453.1 142.35 446.43 222.47 448.54 300 450.59 374.78 466.56 448.08 514.45 505.55 567.28 568.93 637.63 620.89 720 625.71" fill="#2774c6"></path><path d="M720 448.05C759.26 450.35 800.22 435.55 825.04 405.04 848.26 376.5 844.51 336.56 840.43 300 836.91 268.48 824.02 240.62 803.94 216.06 780.87 187.85 756.32 155.63 720 152.7 682 149.63 645.8 172.1 621.32 201.32 598.68 228.34 595.65 264.76 596.61 300 597.54 333.99 604.8 367.31 626.57 393.43 650.58 422.24 682.56 445.86 720 448.05" fill="#488fdb"></path></g><defs><mask id="SvgjsMask1008"><rect width="1440" height="600" fill="#ffffff"></rect></mask></defs></svg>